HIERARCHY
ROOT newVegas:Hips
{
	OFFSET 0.000000 96.479958 0.000000
	CHANNELS 6 Xposition Yposition Zposition Xrotation Yrotation Zrotation
	JOINT newVegas:Pelvis
	{
		OFFSET 0.000000 0.000000 0.000000
		CHANNELS 3 Xrotation Yrotation Zrotation
		JOINT newVegas:LeftUpLeg
		{
			OFFSET 18.735201 -5.666702 -4.541200
			CHANNELS 3 Xrotation Yrotation Zrotation
			JOINT newVegas:LeftLeg
			{
				OFFSET -0.021200 -31.938179 0.493100
				CHANNELS 3 Xrotation Yrotation Zrotation
				JOINT newVegas:LeftFoot
				{
					OFFSET 0.021200 -31.938179 -4.336299
					CHANNELS 3 Xrotation Yrotation Zrotation
					JOINT newVegas:LeftToeBase
					{
						OFFSET 0.943001 -26.722000 15.023500
						CHANNELS 3 Xrotation Yrotation Zrotation
						End Site
						{
							OFFSET 0.000000 30.670183 0.000000
						}
					}
				}
				JOINT newVegas:Left_PantLeg
				{
					OFFSET 0.663870 -9.044666 -1.108900
					CHANNELS 3 Xrotation Yrotation Zrotation
					End Site
					{
						OFFSET 1.415995 20.635357 0.000000
					}
				}
			}
		}
		JOINT newVegas:RightUpLeg
		{
			OFFSET -18.735201 -5.666702 -4.541200
			CHANNELS 3 Xrotation Yrotation Zrotation
			JOINT newVegas:RightLeg
			{
				OFFSET 0.018946 -31.938133 0.493100
				CHANNELS 3 Xrotation Yrotation Zrotation
				JOINT newVegas:RightFoot
				{
					OFFSET -0.018946 -31.938126 -4.336299
					CHANNELS 3 Xrotation Yrotation Zrotation
					JOINT newVegas:RightToeBase
					{
						OFFSET -0.943001 -26.722004 15.023500
						CHANNELS 3 Xrotation Yrotation Zrotation
						End Site
						{
							OFFSET 0.000000 30.670187 0.000000
						}
					}
				}
				JOINT newVegas:Right_PantLeg
				{
					OFFSET -0.661674 -9.044716 -1.108900
					CHANNELS 3 Xrotation Yrotation Zrotation
					End Site
					{
						OFFSET -1.415958 20.635269 0.000000
					}
				}
			}
		}
	}
	JOINT newVegas:Spine
	{
		OFFSET 0.000000 10.199997 -0.299500
		CHANNELS 3 Xrotation Yrotation Zrotation
		JOINT newVegas:Spine1
		{
			OFFSET 0.000000 11.900002 -1.516600
			CHANNELS 3 Xrotation Yrotation Zrotation
			JOINT newVegas:Spine2
			{
				OFFSET 0.000000 13.600006 -2.842500
				CHANNELS 3 Xrotation Yrotation Zrotation
				JOINT newVegas:Neck
				{
					OFFSET 0.000000 9.624100 -2.890100
					CHANNELS 3 Xrotation Yrotation Zrotation
					JOINT newVegas:Head
					{
						OFFSET 0.000000 14.068802 -1.351900
						CHANNELS 3 Xrotation Yrotation Zrotation
						JOINT newVegas:Hair_Back
						{
							OFFSET 0.000000 3.231903 -17.524799
							CHANNELS 3 Xrotation Yrotation Zrotation
							End Site
							{
								OFFSET 0.000000 19.849884 0.000000
							}
						}
						JOINT newVegas:Hair_Front
						{
							OFFSET 0.000000 31.260406 4.573800
							CHANNELS 3 Xrotation Yrotation Zrotation
							JOINT newVegas:Hair_Front1
							{
								OFFSET 0.000000 2.284103 11.993300
								CHANNELS 3 Xrotation Yrotation Zrotation
								JOINT newVegas:Hair_Front2
								{
									OFFSET 0.000000 2.284103 11.993300
									CHANNELS 3 Xrotation Yrotation Zrotation
									End Site
									{
										OFFSET 0.000000 12.208862 0.000000
									}
								}
							}
						}
						JOINT newVegas:Jowel
						{
							OFFSET 0.000000 -7.458206 6.864100
							CHANNELS 3 Xrotation Yrotation Zrotation
							End Site
							{
								OFFSET 0.000000 19.849884 0.000000
							}
						}
					}
				}
				JOINT newVegas:LeftShoulder
				{
					OFFSET 15.263000 10.923401 -0.547700
					CHANNELS 3 Xrotation Yrotation Zrotation
					JOINT newVegas:LeftArm
					{
						OFFSET 25.438599 -2.830597 -13.032500
						CHANNELS 3 Xrotation Yrotation Zrotation
						JOINT newVegas:LeftForeArm
						{
							OFFSET 29.960503 0.000000 0.000000
							CHANNELS 3 Xrotation Yrotation Zrotation
							JOINT newVegas:LeftHand
							{
								OFFSET 27.849251 0.000000 0.000000
								CHANNELS 3 Xrotation Yrotation Zrotation
								JOINT newVegas:LeftHandThumb1
								{
									OFFSET 4.487587 -3.305161 6.305391
									CHANNELS 3 Xrotation Yrotation Zrotation
									JOINT newVegas:LeftHandThumb2
									{
										OFFSET 5.480453 -3.164139 3.164143
										CHANNELS 3 Xrotation Yrotation Zrotation
										JOINT newVegas:LeftHandThumb3
										{
											OFFSET 5.159721 -2.978973 2.978967
											CHANNELS 3 Xrotation Yrotation Zrotation
											End Site
											{
												OFFSET 2.494507 5.926697 1.738678
											}
										}
									}
								}
								JOINT newVegas:LeftHandIndex1
								{
									OFFSET 18.578728 -0.527832 5.208049
									CHANNELS 3 Xrotation Yrotation Zrotation
									JOINT newVegas:LeftHandIndex2
									{
										OFFSET 3.192009 0.000000 0.000000
										CHANNELS 3 Xrotation Yrotation Zrotation
										JOINT newVegas:LeftHandIndex3
										{
											OFFSET 3.835129 0.000000 0.000000
											CHANNELS 3 Xrotation Yrotation Zrotation
											End Site
											{
												OFFSET -0.034599 3.816971 0.371180
											}
										}
									}
								}
								JOINT newVegas:LeftHandMiddle1
								{
									OFFSET 18.476105 0.000000 0.000000
									CHANNELS 3 Xrotation Yrotation Zrotation
									JOINT newVegas:LeftHandMiddle2
									{
										OFFSET 3.324875 0.000000 0.000000
										CHANNELS 3 Xrotation Yrotation Zrotation
										JOINT newVegas:LeftHandMiddle3
										{
											OFFSET 4.596550 0.000000 0.000000
											CHANNELS 3 Xrotation Yrotation Zrotation
											End Site
											{
												OFFSET 0.057701 4.578827 0.399218
											}
										}
									}
								}
								JOINT newVegas:LeftHandRing1
								{
									OFFSET 17.732719 0.121887 -4.201567
									CHANNELS 3 Xrotation Yrotation Zrotation
									JOINT newVegas:LeftHandRing2
									{
										OFFSET 2.733170 0.000000 0.000000
										CHANNELS 3 Xrotation Yrotation Zrotation
										JOINT newVegas:LeftHandRing3
										{
											OFFSET 3.178268 0.000000 0.000000
											CHANNELS 3 Xrotation Yrotation Zrotation
											End Site
											{
												OFFSET 0.119102 3.170624 0.185394
											}
										}
									}
								}
								JOINT newVegas:LeftHandPinky1
								{
									OFFSET 15.989624 -0.606689 -7.535461
									CHANNELS 3 Xrotation Yrotation Zrotation
									JOINT newVegas:LeftHandPinky2
									{
										OFFSET 2.538986 0.000000 0.000000
										CHANNELS 3 Xrotation Yrotation Zrotation
										JOINT newVegas:LeftHandPinky3
										{
											OFFSET 2.593102 0.000000 0.000000
											CHANNELS 3 Xrotation Yrotation Zrotation
											End Site
											{
												OFFSET -0.150902 2.584198 0.152708
											}
										}
									}
								}
							}
							JOINT newVegas:Left_Sleeve
							{
								OFFSET 0.267448 -0.649796 0.577675
								CHANNELS 3 Xrotation Yrotation Zrotation
								End Site
								{
									OFFSET 0.000000 15.991241 0.000000
								}
							}
							JOINT newVegas:Left_CapeC
							{
								OFFSET 15.715958 -8.608795 -6.935905
								CHANNELS 3 Xrotation Yrotation Zrotation
								JOINT newVegas:Left_CapeC1
								{
									OFFSET 0.000000 -8.688499 0.000000
									CHANNELS 3 Xrotation Yrotation Zrotation
									End Site
									{
										OFFSET 0.000000 8.688499 0.000000
									}
								}
							}
						}
						JOINT newVegas:Left_CapeB
						{
							OFFSET 26.118385 -8.608795 -7.079235
							CHANNELS 3 Xrotation Yrotation Zrotation
							JOINT newVegas:Left_CapeB1
							{
								OFFSET 0.000000 -8.688499 0.000000
								CHANNELS 3 Xrotation Yrotation Zrotation
								End Site
								{
									OFFSET 0.000000 8.688499 0.000000
								}
							}
						}
						JOINT newVegas:Left_CapeA
						{
							OFFSET 5.115639 -8.608795 -10.395809
							CHANNELS 3 Xrotation Yrotation Zrotation
							JOINT newVegas:Left_CapeA1
							{
								OFFSET 0.000000 -8.688499 0.000000
								CHANNELS 3 Xrotation Yrotation Zrotation
								End Site
								{
									OFFSET 0.000000 8.688499 0.000000
								}
							}
						}
					}
				}
				JOINT newVegas:RightShoulder
				{
					OFFSET -15.263000 10.923401 -0.547700
					CHANNELS 3 Xrotation Yrotation Zrotation
					JOINT newVegas:RightArm
					{
						OFFSET -25.438599 -2.830597 -13.032500
						CHANNELS 3 Xrotation Yrotation Zrotation
						JOINT newVegas:RightForeArm
						{
							OFFSET -29.960503 0.000000 0.000000
							CHANNELS 3 Xrotation Yrotation Zrotation
							JOINT newVegas:RightHand
							{
								OFFSET -27.849251 0.000000 0.000000
								CHANNELS 3 Xrotation Yrotation Zrotation
								JOINT newVegas:RightHandThumb1
								{
									OFFSET -4.487587 -3.305161 6.305391
									CHANNELS 3 Xrotation Yrotation Zrotation
									JOINT newVegas:RightHandThumb2
									{
										OFFSET -5.480453 -3.164139 3.164143
										CHANNELS 3 Xrotation Yrotation Zrotation
										JOINT newVegas:RightHandThumb3
										{
											OFFSET -5.159721 -2.978973 2.978967
											CHANNELS 3 Xrotation Yrotation Zrotation
											End Site
											{
												OFFSET -2.494507 5.926697 1.738678
											}
										}
									}
								}
								JOINT newVegas:RightHandIndex1
								{
									OFFSET -18.578728 -0.527832 5.208049
									CHANNELS 3 Xrotation Yrotation Zrotation
									JOINT newVegas:RightHandIndex2
									{
										OFFSET -3.192009 0.000000 0.000000
										CHANNELS 3 Xrotation Yrotation Zrotation
										JOINT newVegas:RightHandIndex3
										{
											OFFSET -3.835129 0.000000 0.000000
											CHANNELS 3 Xrotation Yrotation Zrotation
											End Site
											{
												OFFSET 0.034599 3.816971 0.371180
											}
										}
									}
								}
								JOINT newVegas:RightHandMiddle1
								{
									OFFSET -18.476105 0.000000 0.000000
									CHANNELS 3 Xrotation Yrotation Zrotation
									JOINT newVegas:RightHandMiddle2
									{
										OFFSET -3.324875 0.000000 0.000000
										CHANNELS 3 Xrotation Yrotation Zrotation
										JOINT newVegas:RightHandMiddle3
										{
											OFFSET -4.596550 0.000000 0.000000
											CHANNELS 3 Xrotation Yrotation Zrotation
											End Site
											{
												OFFSET -0.057701 4.578827 0.399218
											}
										}
									}
								}
								JOINT newVegas:RightHandRing1
								{
									OFFSET -17.732719 0.121887 -4.201567
									CHANNELS 3 Xrotation Yrotation Zrotation
									JOINT newVegas:RightHandRing2
									{
										OFFSET -2.733170 0.000000 0.000000
										CHANNELS 3 Xrotation Yrotation Zrotation
										JOINT newVegas:RightHandRing3
										{
											OFFSET -3.178268 0.000000 0.000000
											CHANNELS 3 Xrotation Yrotation Zrotation
											End Site
											{
												OFFSET -0.119102 3.170624 0.185394
											}
										}
									}
								}
								JOINT newVegas:RightHandPinky1
								{
									OFFSET -15.989624 -0.606689 -7.535461
									CHANNELS 3 Xrotation Yrotation Zrotation
									JOINT newVegas:RightHandPinky2
									{
										OFFSET -2.538986 0.000000 0.000000
										CHANNELS 3 Xrotation Yrotation Zrotation
										JOINT newVegas:RightHandPinky3
										{
											OFFSET -2.593102 0.000000 0.000000
											CHANNELS 3 Xrotation Yrotation Zrotation
											End Site
											{
												OFFSET 0.150902 2.584198 0.152708
											}
										}
									}
								}
							}
							JOINT newVegas:Right_CapeC
							{
								OFFSET -15.715958 -8.608795 -6.935905
								CHANNELS 3 Xrotation Yrotation Zrotation
								JOINT newVegas:Right_CapeC1
								{
									OFFSET 0.000000 -8.688499 0.000000
									CHANNELS 3 Xrotation Yrotation Zrotation
									End Site
									{
										OFFSET 0.000000 8.688499 0.000000
									}
								}
							}
							JOINT newVegas:Right_Sleeve
							{
								OFFSET -0.267448 -0.649994 0.577675
								CHANNELS 3 Xrotation Yrotation Zrotation
								End Site
								{
									OFFSET 0.000000 15.991302 0.000000
								}
							}
						}
						JOINT newVegas:Right_CapeA
						{
							OFFSET -5.115540 -8.608795 -10.395824
							CHANNELS 3 Xrotation Yrotation Zrotation
							JOINT newVegas:Right_CapeA1
							{
								OFFSET 0.000000 -8.688499 0.000000
								CHANNELS 3 Xrotation Yrotation Zrotation
								End Site
								{
									OFFSET 0.000000 8.688499 0.000000
								}
							}
						}
						JOINT newVegas:Right_CapeB
						{
							OFFSET -26.118187 -8.608795 -7.079266
							CHANNELS 3 Xrotation Yrotation Zrotation
							JOINT newVegas:Right_CapeB1
							{
								OFFSET 0.000000 -8.688499 0.000000
								CHANNELS 3 Xrotation Yrotation Zrotation
								End Site
								{
									OFFSET 0.000000 8.688499 0.000000
								}
							}
						}
					}
				}
				JOINT newVegas:Left_Collar
				{
					OFFSET 18.625099 8.655502 8.828100
					CHANNELS 3 Xrotation Yrotation Zrotation
					JOINT newVegas:Left_Collar1
					{
						OFFSET 14.783401 10.540405 -1.259500
						CHANNELS 3 Xrotation Yrotation Zrotation
						End Site
						{
							OFFSET 0.000000 18.199875 0.000000
						}
					}
				}
				JOINT newVegas:Collar_Back
				{
					OFFSET 0.000000 15.630707 -20.132601
					CHANNELS 3 Xrotation Yrotation Zrotation
					End Site
					{
						OFFSET 0.000000 22.523010 0.000000
					}
				}
				JOINT newVegas:Left_Peck
				{
					OFFSET 17.239599 -5.132599 25.482599
					CHANNELS 3 Xrotation Yrotation Zrotation
					End Site
					{
						OFFSET 0.000000 22.523010 0.000000
					}
				}
				JOINT newVegas:Right_Peck
				{
					OFFSET -17.239599 -5.132202 25.482599
					CHANNELS 3 Xrotation Yrotation Zrotation
					End Site
					{
						OFFSET 0.000000 22.523010 0.000000
					}
				}
				JOINT newVegas:Right_Collar
				{
					OFFSET -18.625099 8.655792 8.828100
					CHANNELS 3 Xrotation Yrotation Zrotation
					JOINT newVegas:Right_Collar1
					{
						OFFSET -14.783401 10.539993 -1.259500
						CHANNELS 3 Xrotation Yrotation Zrotation
						End Site
						{
							OFFSET 0.000000 18.199631 0.000000
						}
					}
				}
			}
		}
		JOINT newVegas:Belly
		{
			OFFSET 0.000000 -6.540398 9.014299
			CHANNELS 3 Xrotation Yrotation Zrotation
			End Site
			{
				OFFSET 0.000000 11.566666 0.000000
			}
		}
	}
	JOINT newVegas:ElvisFacialAnim_Joint
	{
		OFFSET 1.000000 -95.330101 -8.825800
		CHANNELS 3 Xrotation Yrotation Zrotation
		End Site
		{
			OFFSET 0.000000 35.315800 0.000000
		}
	}
}
MOTION
Frames: 4
Frame Time: 0.033333
-2.334921 90.080620 -2.699482 29.792042 -29.675738 23.087822 0.000001 -0.000003 0.000002 -26.645251 20.923444 -6.535464 20.677095 0.673366 -0.768015 -17.588214 12.935788 1.229567 -0.000000 0.000000 -0.000000 -0.000001 0.000001 0.000000 -60.741303 21.247935 0.222571 34.374730 0.980625 1.264179 0.822001 11.864027 4.182048 -0.000000 -0.000000 -0.000000 -0.000000 -0.000001 -0.000000 4.999842 1.087981 4.622716 9.927366 2.242908 8.581736 9.927369 2.242909 8.581756 0.728203 -0.142836 0.916203 0.728176 -0.142820 0.916170 0.000001 0.000000 -0.000000 0.728196 -0.142832 0.916188 0.728253 -0.142899 0.916208 -0.000000 0.000000 0.000001 0.000001 0.000000 -0.000001 -0.062051 -12.061102 -10.249663 -31.894320 5.110769 -12.977201 -0.018324 -46.234223 0.071117 56.246440 -5.442364 63.135994 -17.111012 -6.581652 4.975657 -0.967401 0.158571 1.812792 -0.000000 0.000002 -0.000004 -5.250094 4.450139 2.084788 -0.032092 0.102360 -2.405564 0.000000 0.000004 -0.000002 0.147017 4.180946 1.769631 -0.056267 -0.208614 -2.626975 0.000001 0.000001 -0.000003 -0.262198 4.083716 -0.077337 0.049518 -0.143879 -1.611086 0.000001 -0.000001 0.000001 1.013189 3.710116 -2.314419 0.254076 -0.336039 -2.348108 -0.000000 -0.000002 -0.000000 -0.000001 0.000000 -0.000000 -0.000001 0.000000 -0.000000 -0.000002 0.000000 0.000000 0.000002 -0.000001 -0.000000 0.000002 -0.000002 0.000001 0.000002 -0.000001 -0.000000 0.000002 -0.000002 -0.000001 -1.263673 13.255387 22.883106 36.208865 13.795457 -0.671259 -0.022500 48.176804 -0.056777 -25.682478 -8.367229 -18.768095 29.524305 -2.925053 -16.126521 -0.047443 -1.896116 -1.888634 0.000000 0.000002 0.000001 -6.897286 -4.372864 7.864551 0.200267 -0.886756 22.607402 0.000001 -0.000000 -0.000001 -1.362552 -2.928927 18.303218 -0.288566 1.374445 22.813004 0.000001 0.000001 0.000004 1.183165 -1.867350 20.280949 -0.579653 2.290421 21.719776 0.000001 -0.000001 0.000002 4.308556 -0.300288 22.500815 -0.725148 3.790204 22.284377 0.000001 -0.000000 0.000003 -0.000002 -0.000002 -0.000000 -0.000004 -0.000001 -0.000001 -0.000002 -0.000002 -0.000000 0.000004 0.000003 -0.000001 0.000004 0.000003 -0.000000 0.000004 0.000003 -0.000001 0.000004 0.000003 -0.000000 -0.000001 -0.000002 -0.000000 -0.000001 -0.000002 -0.000000 -0.000001 -0.000002 -0.000000 -0.000001 -0.000002 -0.000000 -0.000001 -0.000002 -0.000000 -0.000001 -0.000002 -0.000000 -0.000001 -0.000002 -0.000000 -0.000001 -0.000002 0.000002 0.000001 -0.000003 0.000002 
-2.370190 90.068214 -2.752378 29.691666 -29.698943 22.982198 -0.000000 0.000001 -0.000000 -26.785994 20.912084 -6.359223 21.001486 0.666590 -0.779672 -17.701675 12.931988 1.187196 0.000000 0.000000 0.000000 -0.000002 -0.000000 -0.000000 -60.708354 21.261935 0.346206 34.409967 0.981669 1.266252 0.838131 11.760653 4.147346 -0.000000 -0.000000 0.000000 0.000000 0.000000 -0.000000 4.993959 1.096314 4.624247 9.914746 2.264368 8.590827 9.914734 2.264374 8.590816 0.721592 -0.144226 0.924560 0.721584 -0.144206 0.924554 -0.000000 0.000003 0.000001 0.721619 -0.144194 0.924557 0.721585 -0.144205 0.924545 -0.000001 0.000001 -0.000000 -0.000000 0.000003 0.000001 -0.063811 -12.049775 -10.283809 -31.498736 4.356709 -13.337631 -0.018936 -45.873142 0.070465 57.283058 -3.387116 63.755335 -17.111024 -6.581625 4.975645 -0.967415 0.158566 1.812787 -0.000000 0.000000 0.000001 -5.360025 4.422682 -3.045225 -0.007357 0.185254 -7.531214 0.000002 -0.000001 0.000001 0.089774 3.765282 -3.335826 -0.083330 -0.625751 -7.736443 -0.000002 -0.000000 -0.000001 -0.181065 3.643791 -5.190664 0.006711 -0.576548 -6.719217 0.000001 -0.000000 -0.000002 1.192193 3.145793 -7.424796 0.138799 -0.923577 -7.441028 0.000000 -0.000003 0.000001 -0.000000 0.000000 -0.000002 -0.000000 0.000000 -0.000002 -0.000001 0.000000 -0.000001 0.000001 0.000000 0.000001 0.000001 -0.000001 0.000001 0.000001 0.000000 0.000001 -0.000001 -0.000001 0.000001 -1.279477 13.298064 22.967966 36.028876 13.594938 -0.531970 -0.022715 48.092984 -0.056697 -25.736530 -8.254332 -18.639842 29.524302 -2.925054 -16.126521 -0.047436 -1.896111 -1.888630 0.000003 -0.000001 -0.000002 -6.897286 -4.372863 7.864551 0.200267 -0.886757 22.607400 -0.000000 0.000001 -0.000001 -1.362553 -2.928927 18.303222 -0.288566 1.374447 22.813001 -0.000000 -0.000000 0.000002 1.183163 -1.867349 20.280954 -0.579653 2.290418 21.719774 0.000001 0.000001 -0.000000 4.308555 -0.300287 22.500812 -0.725145 3.790212 22.284378 0.000001 -0.000002 0.000001 -0.000001 -0.000001 -0.000001 -0.000001 -0.000000 0.000000 -0.000001 -0.000001 -0.000001 -0.000001 0.000000 0.000000 -0.000002 0.000001 -0.000000 -0.000001 0.000000 0.000000 -0.000002 0.000001 -0.000000 -0.000001 -0.000002 -0.000000 -0.000001 -0.000002 -0.000000 -0.000001 -0.000002 -0.000000 -0.000001 -0.000002 -0.000000 -0.000001 -0.000002 -0.000000 -0.000001 -0.000002 -0.000000 -0.000001 -0.000002 -0.000000 -0.000000 -0.000004 0.000003 -0.000000 0.000001 -0.000000 
-2.397263 90.069962 -2.798229 29.550223 -29.690644 22.886378 0.000001 0.000001 -0.000002 -26.792967 20.928060 -6.263942 21.147394 0.662681 -0.785076 -17.718016 12.866069 1.140373 -0.000000 0.000000 -0.000000 0.000002 0.000001 -0.000000 -60.637333 21.353835 0.433209 34.471599 0.984896 1.269000 0.822029 11.585774 4.139488 0.000000 0.000000 -0.000000 0.000000 0.000001 -0.000001 4.994470 1.119361 4.629921 9.914129 2.312659 8.601563 9.914120 2.312659 8.601559 0.724030 -0.144796 0.925104 0.724031 -0.144786 0.925097 -0.000000 0.000001 -0.000001 0.724001 -0.144768 0.925105 0.724059 -0.144795 0.925097 -0.000001 -0.000000 -0.000003 -0.000000 0.000001 -0.000001 -0.068516 -12.037239 -10.358572 -32.019684 3.705571 -13.556836 -0.019223 -45.227976 0.069995 60.235411 -2.735939 63.936813 -17.111038 -6.581631 4.975624 -0.967415 0.158575 1.812790 0.000001 -0.000002 -0.000001 -5.691589 4.124295 -3.058244 0.018239 0.182179 -7.531255 0.000000 -0.000000 0.000004 -0.053682 3.781038 -3.326995 -0.054051 -0.629338 -7.736158 -0.000001 0.000000 0.000001 0.100647 3.612873 -5.208037 -0.024167 -0.572689 -6.719591 -0.000001 0.000001 -0.000003 1.839534 3.186599 -7.482257 -0.028664 -0.903284 -7.443382 0.000000 -0.000005 0.000000 0.000001 0.000000 0.000001 0.000001 0.000000 0.000001 0.000000 0.000000 0.000001 0.000002 0.000001 -0.000002 0.000002 0.000000 -0.000002 0.000002 0.000001 -0.000002 0.000002 0.000000 -0.000003 -1.297853 13.361499 23.037064 35.987741 13.379529 -0.348885 -0.023443 48.040371 -0.056101 -25.692395 -8.237020 -18.931430 29.524309 -2.925053 -16.126521 -0.047441 -1.896112 -1.888627 0.000001 0.000001 -0.000000 -6.897284 -4.372863 7.864551 0.200267 -0.886756 22.607399 0.000000 0.000001 -0.000000 -1.362552 -2.928927 18.303223 -0.288568 1.374446 22.813008 0.000000 0.000002 0.000008 1.183165 -1.867348 20.280952 -0.579653 2.290422 21.719776 0.000001 0.000002 0.000003 4.308557 -0.300288 22.500813 -0.725144 3.790206 22.284382 0.000001 -0.000000 0.000002 -0.000002 -0.000001 -0.000000 -0.000002 -0.000001 -0.000001 -0.000002 -0.000001 -0.000001 0.000002 0.000001 -0.000000 0.000002 0.000002 -0.000000 0.000002 0.000001 -0.000000 0.000002 0.000002 -0.000000 -0.000001 -0.000000 -0.000003 -0.000001 -0.000000 -0.000003 -0.000001 -0.000000 -0.000003 -0.000001 -0.000000 -0.000003 -0.000001 -0.000000 -0.000003 -0.000001 -0.000000 -0.000003 -0.000001 -0.000000 -0.000003 -0.000001 0.000004 -0.000001 0.000001 0.000001 -0.000002 
-2.414022 90.087097 -2.847082 29.387183 -29.627950 22.818001 0.000001 0.000001 -0.000002 -26.677170 21.007013 -6.256201 21.080440 0.661554 -0.783063 -17.603230 12.693191 1.080465 0.000000 -0.000000 -0.000000 0.000001 -0.000000 -0.000000 -60.550815 21.536037 0.474775 34.552175 0.990329 1.272106 0.784627 11.324641 4.160648 0.000000 0.000000 -0.000000 0.000000 -0.000001 -0.000001 4.998176 1.143153 4.635150 9.920127 2.358677 8.605816 9.920124 2.358678 8.605813 0.731577 -0.145046 0.922283 0.731598 -0.145047 0.922283 0.000001 0.000000 0.000002 0.731508 -0.144989 0.922288 0.731710 -0.145083 0.922279 -0.000001 0.000002 0.000003 0.000001 0.000000 0.000002 -0.075180 -12.041083 -10.442393 -33.470106 3.169759 -14.085993 -0.019275 -44.457117 0.069066 63.607168 -4.015817 64.151664 -17.111019 -6.581621 4.975624 -0.967410 0.158569 1.812793 0.000001 -0.000000 -0.000005 -5.691573 4.124304 -3.058246 0.018232 0.182167 -7.531247 0.000001 0.000000 0.000000 -0.053665 3.781045 -3.326989 -0.054085 -0.629353 -7.736162 -0.000000 0.000001 -0.000001 0.100658 3.612875 -5.208033 -0.024153 -0.572680 -6.719555 0.000000 -0.000000 -0.000003 1.839542 3.186590 -7.482256 -0.028644 -0.903271 -7.443369 -0.000000 -0.000003 -0.000000 0.000001 0.000000 0.000001 0.000001 0.000000 0.000001 0.000001 0.000000 0.000002 -0.000001 0.000004 -0.000001 -0.000001 0.000003 -0.000001 -0.000001 0.000004 -0.000001 -0.000001 0.000003 -0.000002 -1.309813 13.407508 23.071354 35.929090 13.301883 -0.109742 -0.024376 47.982076 -0.055338 -25.527757 -8.371370 -19.474293 29.524305 -2.925051 -16.126517 -0.047442 -1.896110 -1.888630 0.000002 0.000000 0.000001 -6.897286 -4.372863 7.864550 0.200266 -0.886756 22.607405 -0.000001 0.000001 -0.000000 -1.362550 -2.928927 18.303222 -0.288567 1.374445 22.813006 0.000001 0.000001 0.000004 1.183164 -1.867346 20.280952 -0.579652 2.290421 21.719776 0.000001 0.000004 0.000001 4.308557 -0.300288 22.500813 -0.725146 3.790204 22.284382 0.000000 0.000002 -0.000002 -0.000002 -0.000001 -0.000001 -0.000002 -0.000000 -0.000000 -0.000002 -0.000001 -0.000001 0.000003 0.000003 -0.000001 0.000003 0.000004 -0.000001 0.000003 0.000003 -0.000001 0.000003 0.000004 -0.000001 0.000002 -0.000000 -0.000000 0.000002 -0.000000 -0.000000 0.000002 -0.000000 -0.000000 0.000002 -0.000000 -0.000000 0.000002 -0.000000 -0.000000 0.000002 -0.000000 -0.000000 0.000002 -0.000000 -0.000000 -0.000001 -0.000001 -0.000002 0.000001 0.000001 -0.000002 
